<svg xmlns="http://www.w3.org/2000/svg" viewBox="0 0 512 512">
  <defs>
    <radialGradient id="bg" cx="50%" cy="28%" r="80%">
      <stop offset="0" stop-color="#2c3d8a"/><stop offset=".6" stop-color="#141c4a"/><stop offset="1" stop-color="#090d26"/>
    </radialGradient>
    <linearGradient id="gold" x1="0" y1="0" x2="0" y2="1">
      <stop offset="0" stop-color="#fff0bd"/><stop offset=".5" stop-color="#f0cd7a"/><stop offset="1" stop-color="#b98a2c"/>
    </linearGradient>
  </defs>
  <rect width="512" height="512" rx="112" fill="url(#bg)"/>
  <rect x="14" y="14" width="484" height="484" rx="100" fill="none" stroke="#f0cd7a" stroke-opacity=".45" stroke-width="3"/>
  <g fill="#fff" opacity=".8"><circle cx="96" cy="110" r="3"/><circle cx="420" cy="96" r="2.4"/><circle cx="64" cy="300" r="2"/><circle cx="452" cy="330" r="3"/><circle cx="130" cy="430" r="2.2"/><circle cx="392" cy="436" r="2"/></g>
  <path d="M256 54c92 70 142 150 142 236 0 90-62 158-142 186-80-28-142-96-142-186 0-86 50-166 142-236z" fill="none" stroke="url(#gold)" stroke-width="10" stroke-linejoin="round"/>
  <g stroke="url(#gold)" stroke-width="22" stroke-linecap="round" fill="none">
    <path d="M256 128v248"/><path d="M206 176h100"/><path d="M168 232h176"/><path d="M216 346l80-34"/>
  </g>
  <circle cx="256" cy="94" r="7" fill="url(#gold)"/>
</svg>
